# xmcd
#
# Track frame offsets: 
#        150
#        14029
#        26771
#        36367
#        49875
#        58079
#        72643
#        91509
#        99794
#        114438
#        130371
#        140300
#        154872
#
# Disc length: 2232 seconds
#
# Revision: 0
# Processed by: cddbd v1.5.2PL0 Copyright (c) Steve Scherf et al.
# Submitted via: ExactAudioCopyFreeDBPlugin 1.0
#
DISCID=b208b60d
DTITLE=Joe Buck Yourself - Piss and Vinegar
DYEAR=2010
DGENRE=Blues
TTITLE0=Evil Motherfucker from Tennessee
TTITLE1=Are You My Enemy
TTITLE2=Dig My Grave
TTITLE3=Music Citys Dead
TTITLE4=Born to Scare
TTITLE5=Demon in My Head
TTITLE6=Devil Is on His Way
TTITLE7=Drug Train
TTITLE8=Dig a Hole
TTITLE9=Hillbilly Pride
TTITLE10=I Will Survive
TTITLE11=Muddy Water
TTITLE12=Planet Seethe
EXTD=
EXTT0=
EXTT1=
EXTT2=
EXTT3=
EXTT4=
EXTT5=
EXTT6=
EXTT7=
EXTT8=
EXTT9=
EXTT10=
EXTT11=
EXTT12=
PLAYORDER=
